# xmcd CD database file
#
# Track frame offsets:
#	150
#	16458
#	35856
#	55923
#	80828
#	94914
#	118514
#	141461
#	170393
#	182391
#	220559
#	250579
#	277199
#	293634
#	311108
#	327782
#
# Disc length: 4560 seconds
#
# Revision: 0
# Processed by: cddbd v1.5.2PL0 Copyright (c) Steve Scherf et al.
# Submitted via: CDex 1.70beta2
#
DISCID=eb11ce10
DTITLE=Nick The Nightfly - 100 Hits In Jazz - CD 3
DYEAR=2009
DGENRE=Jazz
TTITLE0=Buddy Greco - The Lady Is A Tramp
TTITLE1=Lisa Ekdahl - Love For Sale
TTITLE2=Paul Desmond - Samba De Orfeu
TTITLE3=Duke Ellington And His Orchestra - Take The "A" Train
TTITLE4=Dominique Eade - Lullaby Of Birland
TTITLE5=Etta James - These Foolish Things
TTITLE6=Patti Austin - Lost In The Stars
TTITLE7=Paul Desmond - Bewitched
TTITLE8=Aretha Franklin - Somewhere Over The Raibow
TTITLE9=Gerry Mulligan And Chet Baker - My Funny Valentine
TTITLE10=The Dave Brubeck Quartet - Georgia On My Mind
TTITLE11=Miles Davis And John Coltrane - Round Midnight
TTITLE12=Tommy Dorsey And His Orchestra - I'm Gettin' Sentimental Over You
TTITLE13=Hoagy Carmichael - Stardust
TTITLE14=Aretha Franklin - Unforgettable
TTITLE15=Billie Holiday - The Man I Love
EXTD=YEAR: 2009
EXTT0=
EXTT1=
EXTT2=
EXTT3=
EXTT4=
EXTT5=
EXTT6=
EXTT7=
EXTT8=
EXTT9=
EXTT10=
EXTT11=
EXTT12=
EXTT13=
EXTT14=
EXTT15=
PLAYORDER=
